<svg xmlns="http://www.w3.org/2000/svg" viewBox="0 0 900 900" width="900" height="900">
<defs><style>
.o{fill:none;stroke:#123230;stroke-width:3.5;stroke-linejoin:round;stroke-linecap:round}
.s{fill:none;stroke:#5f786c;stroke-width:2.1;stroke-linejoin:round;stroke-linecap:round}
.h{fill:none;stroke:#aebdb3;stroke-width:1.6}
.d{fill:none;stroke:#5f786c;stroke-width:2.2;stroke-dasharray:11.2 9.6;stroke-linecap:round}
.f{fill:#fbfcf9;stroke:#123230;stroke-width:3.5;stroke-linejoin:round}
.f2{fill:#edf1ea;stroke:#123230;stroke-width:3.5;stroke-linejoin:round}
.sh{fill:#dce4d9;stroke:#123230;stroke-width:3.5;stroke-linejoin:round}
.fn{fill:#edf1ea;stroke:none}
.ink{fill:#123230}
.lime{fill:#c2ff4c;stroke:#123230;stroke-width:2.9;stroke-linejoin:round}
.lf{fill:rgba(194,255,76,.42);stroke:#6f9a1c;stroke-width:3.2;stroke-linejoin:round}
.dim{fill:none;stroke:#6f9a1c;stroke-width:2.9;stroke-linecap:round}
.ext{fill:none;stroke:#6f9a1c;stroke-width:1.6;stroke-dasharray:6.4 6.4}
text{paint-order:stroke;stroke:#f3f5f0;stroke-width:6.4px;stroke-linejoin:round}
.t{font:500 20.8px 'IBM Plex Mono',Consolas,Menlo,monospace;letter-spacing:.1em;fill:#5f786c}
.tb{font:600 22.4px 'IBM Plex Mono',Consolas,Menlo,monospace;letter-spacing:.08em;fill:#123230}
.tc{font:500 24px 'Noto Sans TC','PingFang TC','Microsoft JhengHei',sans-serif;fill:#123230}
.tcs{font:500 20.8px 'Noto Sans TC','PingFang TC','Microsoft JhengHei',sans-serif;fill:#5f786c}
.tl{font:600 20.8px 'IBM Plex Mono',Consolas,Menlo,monospace;letter-spacing:.1em;fill:#6f9a1c}
</style></defs>
<rect class="d" x="122" y="235" width="468" height="221"/><text class="tl" x="356" y="339" text-anchor="middle">PLANNED BODY</text><text class="tcs" x="356" y="361" text-anchor="middle">規劃車廂</text><line class="o" x1="60" y1="560" x2="860" y2="560"/><g transform="translate(96 560) scale(1.3)"><rect class="f2" x="30" y="-80" width="470" height="14"/><rect class="f2" x="22" y="-66" width="12" height="22"/><rect class="f2" x="250" y="-64" width="64" height="26" rx="6"/><path class="f" d="M392,-66 V-205 Q392,-218 405,-218 H478 Q496,-218 506,-202 L536,-142 Q540,-134 540,-124 V-80 Q540,-66 526,-66 Z"/><path class="sh" d="M474,-206 H500 L526,-152 H474 Z"/><line class="s" x1="470" y1="-150" x2="470" y2="-72"/><line class="o" x1="454" y1="-128" x2="464" y2="-128"/><rect class="sh" x="526" y="-114" width="12" height="12" rx="2"/><path class="f2" d="M518,-80 H546 V-62 H514 Z"/><line class="o" x1="540" y1="-196" x2="552" y2="-184"/><rect class="sh" x="548" y="-190" width="7" height="22" rx="2"/><path class="s" d="M84,-66 A46,46 0 0 1 176,-66"/><circle class="f2" cx="130" cy="-34" r="34"/><circle class="h" cx="130" cy="-34" r="25"/><circle class="f" cx="130" cy="-34" r="15"/><circle class="ink" cx="130" cy="-34" r="4"/><circle class="f2" cx="445" cy="-34" r="34"/><circle class="h" cx="445" cy="-34" r="25"/><circle class="f" cx="445" cy="-34" r="15"/><circle class="ink" cx="445" cy="-34" r="4"/></g><line class="ext" x1="135" y1="456" x2="135" y2="634"/><line class="ext" x1="605.6" y1="456" x2="605.6" y2="634"/><line class="dim" x1="135" y1="626" x2="605.6" y2="626"/><line class="dim" x1="135" y1="613.2" x2="135" y2="638.8"/><line class="dim" x1="605.6" y1="613.2" x2="605.6" y2="638.8"/><text class="tl" x="370.3" y="656.4" text-anchor="middle">FRAME LENGTH / 車架長度</text><line class="ext" x1="265" y1="515.8" x2="265" y2="710"/><line class="ext" x1="674.5" y1="515.8" x2="674.5" y2="710"/><line class="dim" x1="265" y1="702" x2="674.5" y2="702"/><line class="dim" x1="265" y1="689.2" x2="265" y2="714.8"/><line class="dim" x1="674.5" y1="689.2" x2="674.5" y2="714.8"/><text class="tl" x="469.8" y="732.4" text-anchor="middle">WHEELBASE / 軸距</text><line class="ext" x1="129" y1="456" x2="73" y2="456"/><line class="dim" x1="81" y1="560" x2="81" y2="456"/><line class="dim" x1="68.2" y1="560" x2="93.8" y2="560"/><line class="dim" x1="68.2" y1="456" x2="93.8" y2="456"/><text class="tl" x="66.6" y="508" text-anchor="middle" transform="rotate(-90 66.6 508)">FRAME HEIGHT</text><line class="dim" x1="117.4" y1="456" x2="152.6" y2="456"/><line class="dim" x1="135" y1="438.4" x2="135" y2="473.6"/><circle class="lime" cx="135" cy="456" r="5.6"/><line class="dim" x1="588" y1="456" x2="623.2" y2="456"/><line class="dim" x1="605.6" y1="438.4" x2="605.6" y2="473.6"/><circle class="lime" cx="605.6" cy="456" r="5.6"/><line class="dim" x1="247.4" y1="515.8" x2="282.6" y2="515.8"/><line class="dim" x1="265" y1="498.2" x2="265" y2="533.4"/><circle class="lime" cx="265" cy="515.8" r="5.6"/><line class="dim" x1="656.9" y1="515.8" x2="692.1" y2="515.8"/><line class="dim" x1="674.5" y1="498.2" x2="674.5" y2="533.4"/><circle class="lime" cx="674.5" cy="515.8" r="5.6"/>
</svg>
